<?xml version="1.0" standalone="no"?>
<!DOCTYPE svg PUBLIC "-//W3C//DTD SVG 20010904//EN"
 "http://www.w3.org/TR/2001/REC-SVG-20010904/DTD/svg10.dtd">
<svg version="1.0" xmlns="http://www.w3.org/2000/svg"
 width="1280.000000pt" height="500.000000pt" viewBox="0 0 1280.000000 500.000000"
 preserveAspectRatio="xMidYMid meet">
<metadata>
Created by potrace 1.13, written by Peter Selinger 2001-2015
</metadata>
<g transform="translate(0.000000,500.000000) scale(0.100000,-0.100000)"
fill="#000000" stroke="none">
<path d="M2340 4828 c-96 -95 -557 -550 -1025 -1012 -467 -462 -955 -944
-1083 -1071 l-232 -230 1257 -1257 1258 -1258 705 0 705 0 -998 998 c-548 548
-997 1000 -997 1005 0 11 2684 9 2760 -3 146 -23 115 5 920 -818 403 -411 769
-780 814 -820 191 -171 393 -275 651 -335 89 -21 108 -21 1660 -24 l1570 -4
720 728 c396 400 955 966 1243 1257 l524 529 -1243 1243 -1244 1244 -720 0
-720 0 1000 -1000 1000 -1000 -1386 2 -1385 3 -80 39 c-77 38 -95 55 -879 836
-440 438 -829 818 -864 844 -138 101 -301 183 -451 225 -185 52 -161 51 -1790
51 l-1515 -1 -175 -171z m3255 -852 c53 -25 160 -129 880 -845 883 -879 899
-894 1100 -992 55 -26 141 -60 190 -74 194 -56 162 -55 1695 -55 l1415 0 -495
-495 -495 -495 -1300 0 c-1404 0 -1371 -1 -1449 52 -17 12 -386 375 -821 808
-466 464 -821 809 -865 841 -193 143 -374 219 -615 260 -51 9 -458 14 -1487
18 l-1417 6 487 502 487 502 1315 -2 1315 -2 60 -29z"/>
</g>
</svg>
